<svg width="464" height="635" viewBox="0 0 464 635" fill="none" xmlns="http://www.w3.org/2000/svg" class='svgBk'>
<path fill-rule="evenodd" clip-rule="evenodd" d="M379.49 240.401C382.522 242.1 385.039 243.261 387.41 244.054L390.897 245.219L387.617 246.88C385.39 248.009 383.272 249.448 381.142 251.281L379.498 252.695L378.705 250.679C377.663 248.029 377.156 245.016 377.198 241.722L377.231 239.136L379.49 240.401ZM233.836 248.958C236.673 254.076 240.099 259.115 243.412 263.988C250.724 274.743 258.284 285.864 260.613 299.163C260.884 300.816 261.001 306.639 261.001 306.639L258.834 305.756C251.596 302.81 243.917 300.618 236.492 298.499C233.622 297.68 230.654 296.833 227.745 295.952C226.561 295.636 225.383 295.265 224.243 294.907C221.478 294.038 218.866 293.217 216.119 293.078L215.283 293.035L214.865 292.311C211.081 285.761 213.919 279.517 217.168 273.683C219.12 269.43 221.63 265.434 224.059 261.569C226.576 257.563 229.178 253.421 231.08 249.086L232.328 246.239L233.836 248.958ZM373.491 303.217C369.189 307.723 365.194 312.301 361.615 316.825L358.897 315.576C360.211 308.895 364.289 304.188 371.733 300.762L373.491 303.217ZM229.583 403.875C230.014 403.875 230.418 404.042 230.721 404.345C231.028 404.653 231.196 405.067 231.195 405.511L229.583 405.506V403.875ZM408.587 515.277C411.114 510.941 411.485 504.134 407.698 500.444C408.972 492.473 406.469 483.566 400.926 477.221L400.913 477.24C392.684 464.915 392.079 460.523 398.092 446.746C408.838 446.336 419.907 446.213 430.399 443.702L430.007 441.357C430.395 441.254 432.379 440.733 432.805 440.623C432.748 441.06 432.452 443.051 432.459 443.45C432.95 443.986 434.134 444.484 434.355 443.429C440.955 415.215 446.862 387.561 453.281 359.39C459.999 330.957 473.509 285.48 440.439 269.81L441.122 266.897C442.948 266.897 443.682 264.907 444.519 262.096C448.25 252.038 440.995 242.176 434.21 235.955C424.936 226.67 416.381 216.362 408.105 206.397C384.496 177.693 352.373 139.389 311.311 145.896L311.45 147.587C305.026 148.395 298.32 150.093 291.816 148.91C269.611 145.063 245.453 153.766 231.796 171.634L231.294 168.304C231.247 167.99 231.134 167.699 230.637 167.699C229.986 167.676 229.642 168.208 229.402 168.7C205.83 178.017 196.066 208.346 188.534 229.134C187.572 232.648 187.843 233.687 187.927 233.894L189.295 234.709C175.089 253.611 167.282 276.345 160.585 297.902C158.372 303.649 158.141 307.631 161.838 311.106C137.463 325.755 118.336 348.584 129.15 374.61C143.264 399.935 180.637 416.003 208.708 430.549C219.855 436.589 236.068 439.805 246.326 449.697C247.011 450.709 247.994 451.697 248.59 451.615C253.351 452.32 260.436 422.58 259.36 420.198C264.385 421.995 269.976 421.9 275.232 422.838C274.761 423.872 273.219 425.274 274.373 426.425C274.294 429.918 274.831 433.694 275.6 437.254C269.292 436.242 269.435 439.552 275.504 437.801C275.669 439.343 276.09 443.276 276.251 444.767C274.44 443.97 270.834 443.411 269.571 444.657C270.087 446.317 274.555 444.754 276.276 445.246C277.283 452.712 277.611 460.053 278.317 467.499C272.947 472.616 264.558 473.825 259.765 479.359C255.704 483.571 256.289 490.64 261.054 494.028C258.136 497.451 260.471 503.132 264.732 504.061C270.536 505.416 276.603 503.542 282.326 501.968C291.84 498.834 301.803 493.95 312.784 487.036C317.128 484.329 320.363 480.077 321.9 475.059C333.041 440.72 336.018 417.387 330.759 405.675C327.759 403.408 324.414 404.807 321.643 403.569C320.323 402.979 319.133 402.185 318.173 399.37C332.625 397.951 353.694 400.589 365.28 393.662L364.872 392.795C365.942 392.112 368.293 389.255 369.187 388.336C367.575 407.729 366.279 427.624 365.638 446.948C363.513 450.523 361.708 454.223 359.727 458.352C358.349 459.705 355.939 462.025 357.353 463.559C357.353 463.559 345.458 491.418 341.822 505.501C338.361 505.647 336.958 511.511 337.09 515.405C337.616 522.493 346.711 523.245 354.684 523.94C360.14 524.513 365.749 524.809 371.275 524.809C381.26 524.817 406.225 524.129 408.587 515.277Z"   class="svg-background" />
<path fill-rule="evenodd" clip-rule="evenodd" d="M267.05 418.814C270.977 419.738 274.937 420.504 278.887 421.328C279.9 421.773 284.997 421.845 284.068 423.507C284.073 423.512 284.075 423.517 284.08 423.52C283.043 424.318 281.638 423.866 280.387 423.971C290.102 427.946 296.764 419.754 294.976 410.404C294.722 408.735 294.393 406.835 293.673 405.309C293.291 404.625 290.552 399.354 290.069 401.153C290.449 401.38 289.376 401.474 289.526 400.659C256.167 400.289 264.381 384.961 261.215 417.508C263.177 417.656 265.137 418.363 267.05 418.814M275.157 433.023C275.341 433.838 275.543 434.67 275.781 435.476C282.307 436.609 287.106 439.917 276.773 439.294C277.071 440.513 277.35 441.737 277.615 442.966C278.893 443.456 283.538 445.013 283.301 446.499C281.691 446.861 279.933 446.193 278.279 446.264C279.354 453.378 280.923 460.656 280.78 467.868C280.799 470.242 277.17 470.691 276.704 468.337C272.31 474.786 259.054 477.305 260.312 486.73C261.013 488.656 261.931 489.967 263.903 490.038C265.303 490.399 266.865 492.051 266.06 493.526L266.096 493.539C265.944 494.872 264.419 495.354 263.418 495.738C262.423 496.512 262.387 497.759 263.177 498.924C267.041 502.992 278.059 498.939 282.849 497.601C292.57 494.227 301.758 489.343 310.524 483.998C314.633 481.634 317.457 477.672 318.795 473.169C324.82 451.734 332.638 428.989 329.094 406.569C327.558 404.385 324.233 404.782 322.068 403.626C325.647 416.823 319.715 430.527 317.301 443.539C312.318 466.968 308.392 485.654 282.562 493.472C279.076 494.202 271.562 496.842 268.977 493.916C268.153 493.129 268.235 491.813 268.977 491.011C270.284 489.264 272.446 489.473 274.398 489.275C279.454 488.644 284.401 487.11 288.91 484.738C298.935 479.79 305.902 470.247 307.674 459.246C310.682 446.86 313.382 434.373 316.897 422.117C319.302 413.779 323.23 406.523 314.532 400.382C308.646 400.556 302.755 400.717 296.866 400.738C298.316 403.172 299.92 406.241 299.103 409.127C302.694 417.262 298.057 428.103 289.113 430.178C284.163 431.242 279.023 429.974 274.455 427.883C274.527 429.602 274.745 431.264 275.157 433.023M366.888 393.179C366.913 392.846 366.939 392.511 366.965 392.175C366.51 392.675 365.99 393.123 365.431 393.527C365.913 393.404 366.395 393.279 366.888 393.179M366.023 448.113C365.551 449.81 365.025 451.493 364.453 453.16C372.948 450.708 384.274 448.672 391.335 455.329C392.343 452.613 393.545 450.04 395.231 447.716C386.634 446.74 377.974 447.278 369.38 446.405C368.745 447.604 367.294 448.317 366.023 448.113M392.3 467.699C392.269 467.612 392.236 467.525 392.205 467.441C391.721 467.38 391.24 467.322 390.759 467.259C391.274 467.4 391.787 467.546 392.3 467.699M362.371 459.075C362.051 460.171 361.203 460.846 360.348 460.919C359.502 461.842 359.167 463.237 358.037 463.869C353.757 478.012 348.001 491.752 345.1 506.299C364.937 512.714 383.53 513.082 403.493 506.614C403.013 506.142 402.788 505.51 402.777 504.808C402.765 504.821 402.749 504.831 402.734 504.844C405.434 491.603 403.911 487.437 397.017 476.116C387.754 475.718 378.463 475.375 369.191 475.653C367.014 475.907 362.789 474.119 364.693 471.52C366.926 469.072 370.438 469.735 373.439 469.894C380.44 470.245 387.426 471.275 394.098 473.474C393.397 471.985 393.179 470.215 392.616 468.636C386.148 467.903 379.616 467.732 373.128 468.27C370.71 468.498 367.86 469.658 365.767 467.973C362.029 461.478 388.496 465.038 391.538 465.763C390.537 463.414 389.468 460.976 389.925 458.34C383.256 453.094 369.275 454.906 362.371 459.075M342.748 510.903C342.214 511.277 341.532 511.259 340.955 511.003C339.619 514.23 340.546 517.532 344.243 518.29C350.98 519.867 358.003 520.162 364.892 520.567C372.225 520.854 379.584 520.641 386.888 519.947C398.61 519.596 409.024 516.302 408.545 502.563C408.076 504.397 407.77 507.21 405.411 507.326C387.003 517.035 363.102 517.959 344.107 509.52C343.779 510.042 343.345 510.485 342.748 510.903M430.616 442.29C430.618 442.251 430.618 442.218 430.624 442.18C430.426 442.231 430.227 442.29 430.026 442.338C430.223 442.321 430.418 442.303 430.616 442.29M378.393 241.229C378.357 244.069 378.749 246.948 379.794 249.605C381.874 247.815 384.12 246.243 386.578 244.999C383.723 244.044 381.017 242.699 378.393 241.229M437.633 267.148C437.249 266.47 438.96 267.298 439.226 267.333C438.111 266.438 438.338 264.536 439.631 264.027C445.761 253.351 438.325 243.657 430.464 236.564C417.049 223.312 406.13 207.876 393.657 193.775C377.922 196.396 362.723 203.128 350.984 213.971C363.006 225.048 375.546 236.691 390.676 243.312C392.083 242.631 393.953 242.816 394.421 244.34C396.157 244.656 397.888 245.098 399.62 245.38C399.707 245.393 399.695 245.521 399.62 245.541C397.918 246.127 396.163 246.517 394.344 246.401C376.847 252.49 370.301 271.297 357.853 283.581C347.689 292.464 333.11 299.019 331.643 314.132C329.196 319.017 327.428 324.116 328.078 329.587C327.907 333.861 329.4 338.1 328.18 342.245C330.747 352.046 333.689 362.243 341.04 369.633C341.248 369.582 341.463 369.595 341.663 369.692C341.135 366.417 340.568 363.147 340.009 359.877C337.89 355.552 336.536 350.9 335.649 346.178C335.288 343.799 338.787 343.322 338.934 345.745C341.321 354.24 344.213 364.306 352.51 369.247C351 363.539 349.178 357.897 346.664 352.549C345.703 350.769 344.795 348.959 343.905 347.143C342.945 345.177 345.811 343.448 346.875 345.41C350.75 352.787 354.405 361.143 361.786 365.557C359.456 357.862 356.387 350.323 353.477 342.818C353.153 342.048 353.826 341.136 354.551 340.929C355.436 340.675 356.123 341.241 356.444 342.001C357.612 344.706 358.498 347.837 360.384 350.18C361.142 352.777 366.433 356.789 363.743 350.836C361.129 343.178 359.353 335.01 355.6 327.867C354.568 314.911 356.528 306.806 369.033 300.808C370.845 299.902 373.095 298.742 375.27 298.352C381.348 292.312 387.84 286.699 394.821 281.606C408.968 270.928 430.475 261.391 446.695 273.304C444.091 270.736 441.07 268.613 437.633 267.148M375.939 174.928C359.134 158.553 337.241 145.498 313.122 145.494C313.338 145.565 313.376 145.826 313.247 145.995C331.546 222.922 243.689 252.827 227.727 168.422C210.969 179.339 198.261 207.759 192.463 226.538C207.487 227.702 221.005 237.176 229.758 249.031C230.513 247.75 230.676 246.228 228.64 246.601C228.174 246.156 230.303 246.41 230.482 246.773C226.431 238.138 222.263 229.199 219.899 219.776C219.83 219.538 220.166 219.404 220.294 219.609C223.846 225.261 227.581 230.789 231.046 236.494C242.769 259.41 266.17 279.545 265.175 306.913C265.181 306.915 265.183 306.918 265.186 306.92C264.731 307.712 264.913 308.814 264.222 309.507C267.826 325.443 276.815 341.728 291.413 349.935C302.441 355.01 314.444 349.128 323.963 343.376C324.315 340.011 324.668 336.648 325.023 333.285C323.289 332.85 323.51 329.683 323.458 328.292C323.095 322.428 324.612 316.674 327.734 311.65C329.174 304.192 333.212 297.563 339.05 292.721C342.948 289.395 347.28 286.632 351.25 283.401C361.791 274.85 367.439 262.146 376.757 252.475C375.634 248.418 375.397 244.357 376.598 240.184C369.938 235.892 333.644 212.246 340.38 203.972C341.355 202.525 343.471 202.781 344.028 204.448C344.73 206.713 345.773 208.806 347.498 210.468C359.7 199.415 375.937 192.082 392.598 192.561C387.263 186.472 381.751 180.528 375.939 174.928M311.675 146.874C301.264 152.041 288.709 148.467 277.604 148.92C260.524 149.595 243.952 157.984 233.366 171.395C237.511 189.673 247.391 210.46 267.494 214.655C287.417 218.231 305.026 201.179 309.782 182.941C312.971 171.238 313.037 158.865 311.675 146.874M168.305 277.449C166.776 281.572 165.33 285.723 163.925 289.889C162.51 294.133 160.844 298.347 159.685 302.67C160.166 304.737 161.317 306.389 162.467 308.126C171.067 321.045 188.557 319.837 201.27 326.11C203.271 327.057 205.69 328.238 207.442 329.902C209.8 330.78 210.47 333.579 210.096 335.854C208.027 347.363 206.341 358.754 205.841 370.427C205.68 373.649 205.577 377.013 206.585 380.089C210.255 377.14 212.382 360.137 212.481 355.115C212.528 353.852 214.117 353.77 214.559 354.833C219.959 369.589 217.149 385.801 217.818 401.191C225.466 390.081 225.487 376.067 225.902 363.088C225.993 361.012 229.173 360.989 229.155 363.088C229.614 376.747 227.638 391.6 229.129 404.896C234.831 390.871 236.431 375.126 234.954 360.103C237.677 368.027 237.581 378.895 236.675 387.791C239.349 388.088 237.561 395.708 238.37 397.89C253.448 363.301 237.882 343.026 221.311 313.822C217.848 305.356 208.318 290.179 211.047 281.557C212.019 278.525 213.748 275.808 215.372 273.096C219.985 265.452 224.759 257.905 229.186 250.153C228.401 249.533 227.634 248.893 226.877 248.24C216.745 239.21 207.502 232.168 193.225 231.15C182.123 244.972 174.384 260.879 168.305 277.449M229.188 405.035C229.283 405.312 229.429 404.766 229.144 404.932C229.157 404.966 229.175 404.999 229.188 405.035M215.895 382.337C215.829 376.673 215.899 370.95 215.121 365.339C215.426 371.004 215.639 376.673 215.895 382.337M221.286 292.053C233.899 295.893 246.8 298.951 259.071 303.822C258.43 282.657 241.76 266.856 232.145 249.19C228.355 257.831 222.132 265.266 218.198 273.865C215.179 279.281 212.424 285.093 215.854 291.031C217.649 290.967 219.65 291.636 221.286 292.053M360.203 315.166C363.963 310.477 367.897 305.96 372.032 301.646C365.853 304.489 361.417 308.471 360.062 315.36C360.105 315.296 360.152 315.232 360.203 315.166M291.669 400.712C292.13 401.055 292.314 401.223 292.649 401.483C292.325 401.24 292.041 400.833 291.669 400.712M127.312 344.524C133.204 329.53 145.668 318.464 159.149 310.226C155.764 306.287 157.175 301.232 158.798 296.857C165.557 275.143 173.174 253.192 186.712 234.653C183.869 232.958 189.791 219.901 190.644 216.757C197.903 199.116 208.788 173.696 228.006 166.929C229.012 165.174 232.098 165.082 232.471 167.564C246.922 150.67 269.986 143.294 291.736 146.885C298.248 148.022 304.488 146.335 310.918 145.55C307.746 145.681 304.591 146.062 301.485 146.743C301.241 146.797 301.149 146.456 301.382 146.375C321.036 139.004 343.038 144.931 359.986 156.187C390.293 176.644 409.45 208.797 434.914 234.318C442.167 241.055 449.102 250.643 445.955 261.021C445.096 263.691 444.309 267.922 440.777 267.921C475.36 285.01 461.069 329.749 454.437 359.219C448.056 387.221 442.051 415.314 435.506 443.276C435.006 445.355 432.764 445.478 431.49 444.418C420.871 447.142 409.699 447.332 398.786 447.734C393.209 461.001 394.212 464.088 401.861 475.893C401.743 475.873 401.605 475.858 401.435 475.852C401.615 475.863 401.817 475.919 401.966 476.039C401.935 475.995 401.909 475.971 401.861 475.893C402.405 475.988 402.402 476.203 402.269 476.247C402.177 476.167 402.082 476.096 401.979 476.034C401.984 476.05 401.984 476.057 401.969 476.042C402.048 476.234 402.184 476.275 402.269 476.247C407.435 482.675 410.09 491.232 408.973 499.438C412.755 503.68 412.329 510.774 409.594 515.502C406.203 522.087 398.675 523.865 391.866 524.461C383.508 525.557 375.069 526.003 366.641 525.775C362.476 525.662 358.319 525.391 354.174 524.956C347.079 524.188 336.281 524.129 335.212 515.036C334.976 511.652 336.415 504.572 340.224 503.7C343.804 489.981 348.187 476.033 356.264 464.214C353.842 462.142 356.306 458.577 358.123 456.909C359.861 453.292 361.612 449.681 363.641 446.215C363.079 444.13 364.476 442.837 364.199 440.771C364.134 425.06 365.753 409.405 366.844 393.74C355.732 401.527 333.758 399.154 320.121 400.221C322.235 404.953 328.081 400.275 331.709 404.292C339.564 421.224 328.718 457.454 323.027 474.997C321.402 480.3 317.984 484.88 313.26 487.823C303.592 493.91 293.307 499.348 282.429 502.926C276.532 504.559 270.133 506.493 264.023 505.042C259.283 503.892 256.184 498.195 258.748 493.821C253.976 489.533 254.079 482.407 258.248 477.852C263.018 472.25 270.994 471.013 276.368 466.345C275.744 459.613 275.42 452.907 274.567 446.205C272.59 446.108 270.613 446.952 268.758 446.036C265.215 442.625 271.263 441.209 274.126 442.095C274.021 441.117 273.918 440.141 273.813 439.163C267.542 440.562 267.333 434.497 273.349 435.03C272.784 432.171 272.478 429.262 272.488 426.375C271.882 425.466 271.92 424.358 272.418 423.505C268.499 422.909 264.317 422.884 260.52 421.743C260.437 426.673 252.959 462.051 244.862 450.241C240.522 445.653 234.603 442.926 228.809 440.574C221.722 437.655 214.677 434.641 207.718 431.43C187.026 421.869 167.008 410.736 148.53 397.363C129.886 385.38 117.928 366.641 127.312 344.524" fill="#fff"/>
<path class="svg-background" fill-rule="evenodd" clip-rule="evenodd" d="M224.798 121.194C225.338 116.458 224.639 106.558 224.592 105.957C224.296 102.154 226.081 87.1397 229.453 88.5232C235.111 84.0508 242.646 83.0632 249.693 82.5914C264.329 81.6114 279.899 83.8612 291.201 93.6969C296.79 98.8048 302.231 106.234 301.794 113.969C306.872 121.302 314.031 131.359 307.704 139.931C305.553 142.67 302.135 143.69 299.433 145.764C293.999 150.141 290.59 156.422 285.104 160.773C270.569 173.815 245.891 176.539 231.611 161.706C220.569 150.962 222.354 134.89 224.296 121.194C225.602 111.986 223.745 130.434 224.798 121.194Z"  />
<path fill-rule="evenodd" clip-rule="evenodd" d="M269.245 62.5061C265.331 61.7174 261.312 61.2266 257.314 61.3743L257.006 61.3863C253.998 61.5063 250.189 61.7718 247.566 63.5183C247.415 63.367 247.172 63.2894 246.952 63.3943C243.834 64.8804 240.405 65.9549 237.122 67.0226C233.854 68.0851 230.463 68.7864 227.038 69.0691C225.75 69.1755 224.647 70.565 225.463 71.8113C225.657 72.1082 225.846 72.4082 226.034 72.7089C225.719 72.6761 225.404 72.6423 225.089 72.6105C224.053 72.5064 223.018 73.6109 223.079 74.6185C223.117 75.2523 223.186 75.8785 223.287 76.4972C222.893 76.489 222.5 76.5481 222.121 76.7081C220.201 77.5176 220.335 79.801 220.478 81.5383C220.678 83.9491 221.581 86.5027 223.257 88.3071C222.005 89.6054 221.119 91.1559 220.591 92.9973C220.207 94.342 219.994 95.7743 220.099 97.174L220.133 97.5931C220.263 99.1121 220.522 100.794 221.616 101.887C222.178 102.45 222.87 102.655 223.53 102.59C223.131 106.091 222.875 109.611 222.634 113.119L222.521 114.796C221.984 122.904 221.581 131.065 221.686 139.186C221.784 146.776 223.286 154.143 227.948 160.305C232.193 165.916 238.289 170.053 245.185 171.625C248.901 172.474 252.695 172.534 256.457 171.994C258.28 171.731 260.115 171.327 261.846 170.691C263.761 169.985 265.138 168.946 266.427 167.389C267.036 166.65 266.743 165.077 265.529 165.225C263.693 165.448 262.017 165.715 260.257 166.258L260.005 166.337C258.252 166.898 256.437 167.316 254.604 167.494C250.85 167.857 247.038 167.491 243.442 166.355C237.587 164.502 232.544 160.372 229.312 155.184C225.475 149.034 225.042 142.053 225.097 134.982C225.156 127.222 225.409 119.458 225.822 111.707L225.892 110.415C226.11 106.426 226.321 102.435 226.506 98.4435C226.564 97.1915 226.651 95.9295 226.81 94.68C228.256 93.8337 229.553 92.6668 230.398 91.227C232.095 91.9281 233.881 92.4339 235.524 92.8371C239.329 93.7716 243.279 93.9984 247.152 93.4133C248.197 93.8442 249.262 94.2231 250.344 94.5491C250.636 94.6785 250.929 94.8057 251.221 94.9304C253.829 96.0447 256.474 96.9887 259.228 97.6798L259.904 97.8482C261.353 98.2049 262.926 98.5561 264.468 98.6664C264.722 98.7641 264.995 98.8467 265.294 98.9193C266.698 99.2598 268.155 99.3675 269.594 99.2473C270.996 99.1296 272.009 97.7149 271.237 96.3903C270.672 95.4237 270.103 94.4597 269.529 93.4981C271.527 94.3295 273.591 95.0206 275.672 95.6065C277.774 96.1975 279.905 96.6958 282.039 97.154C283.18 97.3969 284.326 97.6122 285.464 97.8551C286.279 98.0279 287.531 98.118 288.195 98.6539C288.93 99.2423 289.138 100.615 289.417 101.461C289.783 102.56 290.126 103.664 290.44 104.781C291.064 107.01 291.575 109.271 291.972 111.554C292.368 113.841 292.634 116.149 292.782 118.466C292.93 120.779 292.865 123.108 293.103 125.412C293.231 126.634 294.544 127.262 295.515 126.408C295.629 126.308 295.743 126.207 295.857 126.104L296.026 125.95C296.857 125.199 297.662 124.403 298.326 123.506C298.446 123.341 298.562 123.168 298.669 122.993C298.687 122.993 298.702 122.988 298.72 122.975L298.904 122.837C300.932 121.329 304.32 119.364 306.297 121.868C306.928 122.666 307.25 123.682 307.518 124.662L307.988 126.416C308.292 127.561 308.578 128.712 308.745 129.884C309.124 132.508 308.933 135.533 307.125 137.636C306.403 138.477 305.407 139.078 304.297 139.236C303.677 139.321 303.065 139.216 302.451 139.139C301.826 139.061 301.225 139.186 300.6 139.126C299.607 139.028 299.173 140.215 299.545 140.961C299.745 141.362 299.981 141.708 300.249 142.001C300.034 142.186 299.828 142.386 299.63 142.597C299.043 142.784 298.517 143.188 298.123 143.721C297.804 144.152 297.639 144.62 297.611 145.113C297.576 145.236 297.546 145.361 297.518 145.489L296.98 146.361C296.862 146.552 296.744 146.741 296.626 146.926C295.257 149.079 293.737 150.902 291.849 152.62C290.031 154.273 288.058 155.753 286.35 157.525L286.148 157.736C284.556 159.411 282.878 161.439 283.501 163.876C283.661 164.502 284.537 164.952 285.108 164.529C286.946 163.167 287.872 161.008 289.431 159.356C291.037 157.653 292.814 156.123 294.424 154.425C295.946 152.823 297.148 151.008 298.053 149.009C298.414 149.407 298.94 149.69 299.67 149.801C300.924 149.988 302.093 149.255 302.639 148.17C302.99 148.326 303.349 148.466 303.71 148.576C305.611 149.157 306.807 147.046 306.089 145.486C305.706 144.65 305.227 143.924 304.632 143.313C306.491 143.057 308.382 142.098 309.603 140.901C312.667 137.894 313.088 133.374 312.398 129.355C312.032 127.225 311.401 125.069 310.58 123.068C310.438 122.72 310.285 122.369 310.117 122.024C310.21 122.021 310.305 121.981 310.365 121.904C310.919 121.147 311.594 120.529 312.005 119.682C312.384 118.906 312.805 118.12 313.103 117.311C313.717 115.656 314.018 113.788 314.219 112.038C314.633 108.455 314.472 104.894 313.923 101.333C312.988 95.2685 310.729 89.4647 307.401 84.3721C307.583 84.277 307.756 84.1622 307.918 84.0265L307.998 83.9569L308.128 83.8397C309.077 82.9816 308.995 81.3733 308.128 80.5041L307.854 80.2299C307.507 79.8856 307.208 79.6129 306.647 79.2381C306.564 79.1828 306.48 79.1307 306.394 79.0821C306.688 78.5408 306.789 77.9077 306.585 77.2094C305.873 74.7765 302.367 74.8626 300.145 75.9236C297.687 73.7328 294.961 71.831 292.007 70.2911C284.97 66.6252 277.014 64.0686 269.245 62.5061ZM305.618 126.583C304.304 126.155 302.558 127.054 301.377 127.595C299.88 128.281 298.606 129.295 297.373 130.367C296.758 130.903 296.648 131.779 296.801 132.528C296.816 132.603 296.831 132.681 296.849 132.758C297.012 133.557 297.905 134.186 298.694 134.163C300.347 134.118 301.134 132.693 302.07 131.486C302.18 131.682 302.318 131.862 302.488 131.997L302.604 132.087C302.992 132.382 303.42 132.618 303.933 132.596C304.296 132.578 304.645 132.485 304.966 132.318C305.768 131.894 306.122 130.858 305.904 130.014C305.768 129.483 305.457 129.067 305.051 128.779L305.203 128.676C305.527 128.451 305.822 128.214 306.052 127.863L306.104 127.78H306.084C306.335 127.35 306.172 126.764 305.618 126.583Z" fill="#fff"/>
<path fill-rule="evenodd" clip-rule="evenodd" d="M241.764 149.468C243.465 150.136 245.476 150.294 247.233 149.725C248.912 149.18 250.438 147.969 251.361 146.445C252.183 145.088 252.526 143.477 252.04 141.872C252.017 141.795 251.941 141.746 251.869 141.726C251.471 142.088 251.226 142.447 250.98 142.804C250.567 143.406 250.152 144.002 249.583 144.516C248.755 145.265 247.64 145.873 246.533 146.074C245.449 146.271 244.339 146.097 243.369 145.579C242.779 145.264 242.301 144.843 241.829 144.42C241.314 143.96 240.808 143.492 240.099 143.232C239.531 143.024 238.935 143.2 238.476 143.548C237.984 143.923 237.63 144.509 237.649 145.123C237.68 146.073 238.096 146.865 238.7 147.519C239.517 148.403 240.672 149.04 241.764 149.468ZM243.784 125.793C241.89 126.942 239.005 129.622 241.042 132.472C243.44 134.984 246.892 132.103 248.593 130.801C250.171 129.791 251.943 132.388 250.48 133.567C238.187 142.655 233.198 126.093 242.826 124.441C243.886 124.259 244.28 125.437 243.784 125.793ZM263.701 109.868C261.12 109.744 258.846 110.902 256.386 111.428C254.113 111.914 251.874 111.622 249.664 111.003C246.076 110 244.593 115.483 248.132 116.552C250.708 117.33 253.422 117.384 256.066 116.983C258.415 116.627 260.384 115.485 262.623 114.82C264.545 114.25 266.806 114.487 268.836 114.755L269.624 114.861C270.795 115.019 271.972 115.177 273.132 115.405C274.138 115.604 275.142 115.967 276.169 116.009C276.285 116.014 276.384 115.863 276.311 115.762C275.118 114.127 272.819 112.836 270.99 111.976L270.866 111.918C268.609 110.867 266.214 109.987 263.701 109.868ZM264.647 121.926L264.647 121.869C264.643 120.273 263.712 116.627 261.41 116.627C259.972 116.627 259.099 119.108 258.948 121.666L258.942 121.77C258.876 123.36 259.313 126.836 261.41 126.836C263.53 126.836 264.625 123.544 264.647 121.926V121.926ZM230.755 121.926L230.755 121.869C230.758 120.273 231.69 116.627 233.992 116.627C235.394 116.627 236.259 118.986 236.441 121.474L236.454 121.666C236.545 123.202 236.136 126.836 233.992 126.836C231.872 126.836 230.777 123.544 230.755 121.926V121.926ZM230.79 107.923L230.626 107.926C227.936 108.02 225.168 109.611 224.45 112.284C224.413 112.423 224.584 112.516 224.686 112.421C226.898 110.353 229.873 112.329 232.088 113.365L232.901 113.74C235.757 115.067 239.004 116.626 242.175 115.638C243.681 115.168 244.637 113.623 244.208 112.063C243.825 110.674 242.147 109.507 240.693 110.008L240.627 110.032C239.446 110.483 237.994 110.026 236.774 109.576L235.772 109.2C234.161 108.589 232.542 107.906 230.79 107.923V107.923Z" fill="#fff"/>
<path fill-rule="evenodd" clip-rule="evenodd" d="M207.633 125.45C208.165 124.652 209.672 125.137 209.283 126.144C205.064 135.702 207.016 143.137 218.872 141.836C226.02 141.373 232.961 135.062 240.14 138.202C241.991 139.687 243.209 139.871 245.165 138.264C252.925 134.874 261.711 140.918 269.508 141.734C281.706 142.932 288.34 138.857 282.178 126.362C281.792 125.513 282.913 124.394 283.6 125.265C292.109 135.152 292.536 148.426 278.84 153.548C268.789 156.89 249.566 159.656 242.666 149.579C238.263 156.856 228.85 157.291 221.284 155.989C203.015 154.305 197.417 140.13 207.633 125.45" fill="#fff"/>
</svg>
